<svg xmlns="http://www.w3.org/2000/svg" width="36" height="36" viewBox="0 0 36 36">
  <!-- Rigid Bodies, redrawn on the 36 px grid. -->
  <defs>
    <linearGradient id="body" gradientUnits="userSpaceOnUse" x1="12.232" y1="0.52" x2="23.768" y2="33.48"><stop offset="0" stop-color="#ffa33b"/><stop offset="0.28" stop-color="#f47d24"/><stop offset="1" stop-color="#c4520c"/></linearGradient>
    <linearGradient id="lit0" gradientUnits="userSpaceOnUse" x1="24.062" y1="0.253" x2="29" y2="11.5"><stop offset="0" stop-color="#fff1d6" stop-opacity="0.3"/><stop offset="1" stop-color="#fff1d6" stop-opacity="0"/></linearGradient>
    <linearGradient id="lit1" gradientUnits="userSpaceOnUse" x1="29.021" y1="9.956" x2="26.8" y2="7.1"><stop offset="0" stop-color="#c2410c" stop-opacity="1"/><stop offset="1" stop-color="#c2410c" stop-opacity="0"/></linearGradient>
  </defs>
  <path d="M3.826 11.337L21.174 2.663A2.6 2.6 0 0 1 24.663 3.826L33.337 21.174A2.6 2.6 0 0 1 32.174 24.663L14.826 33.337A2.6 2.6 0 0 1 11.337 32.174L2.663 14.826A2.6 2.6 0 0 1 3.826 11.337Z" fill="#2a0f00" fill-opacity="0.2"/>
  <path d="M3.826 10.337L21.174 1.663A2.6 2.6 0 0 1 24.663 2.826L33.337 20.174A2.6 2.6 0 0 1 32.174 23.663L14.826 32.337A2.6 2.6 0 0 1 11.337 31.174L2.663 13.826A2.6 2.6 0 0 1 3.826 10.337Z" fill="url(#body)"/>
  <path d="M4.507 11.673L4.464 11.696L4.433 11.713L4.402 11.732L4.372 11.752L4.343 11.772L4.314 11.794L4.286 11.816L4.259 11.840L4.232 11.864L4.206 11.889L4.181 11.915L4.157 11.942L4.134 11.970L4.112 11.998L4.091 12.027L4.070 12.057L4.051 12.087L4.033 12.118L4.015 12.150L3.999 12.182L3.984 12.214L3.970 12.247L3.957 12.281L3.945 12.315L3.934 12.349L3.924 12.384L3.916 12.419L3.908 12.454L3.902 12.490L3.897 12.525L3.893 12.561L3.890 12.597L3.889 12.633L3.888 12.669L3.889 12.705L3.891 12.741L3.894 12.777L3.899 12.812L3.904 12.848L3.911 12.883L3.919 12.918L3.928 12.953L3.938 12.988L3.949 13.022L3.961 13.056L3.975 13.089L3.989 13.122L4.010 13.166L12.673 30.493L12.696 30.536L12.713 30.567L12.732 30.598L12.752 30.628L12.772 30.657L12.794 30.686L12.816 30.714L12.840 30.741L12.864 30.768L12.889 30.794L12.915 30.819L12.942 30.843L12.970 30.866L12.998 30.888L13.027 30.909L13.057 30.930L13.087 30.949L13.118 30.967L13.150 30.985L13.182 31.001L13.214 31.016L13.247 31.030L13.281 31.043L13.315 31.055L13.349 31.066L13.384 31.076L13.419 31.084L13.454 31.092L13.490 31.098L13.525 31.103L13.561 31.107L13.597 31.110L13.633 31.111L13.669 31.112L13.705 31.111L13.741 31.109L13.777 31.106L13.812 31.101L13.848 31.096L13.883 31.089L13.918 31.081L13.953 31.072L13.988 31.062L14.022 31.051L14.056 31.039L14.089 31.025L14.122 31.011L14.166 30.990L31.493 22.327L31.536 22.304L31.567 22.287L31.598 22.268L31.628 22.248L31.657 22.228L31.686 22.206L31.714 22.184L31.741 22.160L31.768 22.136L31.794 22.111L31.819 22.085L31.843 22.058L31.866 22.030L31.888 22.002L31.909 21.973L31.930 21.943L31.949 21.913L31.967 21.882L31.985 21.850L32.001 21.818L32.016 21.786L32.030 21.753L32.043 21.719L32.055 21.685L32.066 21.651L32.076 21.616L32.084 21.581L32.092 21.546L32.098 21.510L32.103 21.475L32.107 21.439L32.110 21.403L32.111 21.367L32.112 21.331L32.111 21.295L32.109 21.259L32.106 21.223L32.101 21.188L32.096 21.152L32.089 21.117L32.081 21.082L32.072 21.047L32.062 21.012L32.051 20.978L32.039 20.944L32.025 20.911L32.011 20.878L31.990 20.834L23.327 3.507L23.304 3.464L23.287 3.433L23.268 3.402L23.248 3.372L23.228 3.343L23.206 3.314L23.184 3.286L23.160 3.259L23.136 3.232L23.111 3.206L23.085 3.181L23.058 3.157L23.030 3.134L23.002 3.112L22.973 3.091L22.943 3.070L22.913 3.051L22.882 3.033L22.850 3.015L22.818 2.999L22.786 2.984L22.753 2.970L22.719 2.957L22.685 2.945L22.651 2.934L22.616 2.924L22.581 2.916L22.546 2.908L22.510 2.902L22.475 2.897L22.439 2.893L22.403 2.890L22.367 2.889L22.331 2.888L22.295 2.889L22.259 2.891L22.223 2.894L22.188 2.899L22.152 2.904L22.117 2.911L22.082 2.919L22.047 2.928L22.012 2.938L21.978 2.949L21.944 2.961L21.911 2.975L21.878 2.989L21.834 3.010ZM22.296 3.898L22.299 3.896L22.302 3.895L22.305 3.894L22.308 3.893L22.311 3.892L22.314 3.891L22.317 3.891L22.320 3.890L22.324 3.890L22.327 3.889L22.330 3.889L22.333 3.889L22.337 3.889L22.340 3.889L22.343 3.889L22.346 3.889L22.350 3.889L22.353 3.890L22.356 3.890L22.359 3.891L22.363 3.892L22.366 3.893L22.369 3.894L22.372 3.895L22.375 3.896L22.378 3.897L22.381 3.899L22.384 3.900L22.387 3.902L22.389 3.903L22.392 3.905L22.395 3.907L22.397 3.909L22.400 3.911L22.403 3.913L22.405 3.915L22.407 3.917L22.410 3.920L22.412 3.922L22.414 3.925L22.416 3.927L22.418 3.930L22.420 3.932L22.422 3.935L22.423 3.938L22.425 3.941L22.436 3.962L31.092 21.274L31.102 21.296L31.104 21.299L31.105 21.302L31.106 21.305L31.107 21.308L31.108 21.311L31.109 21.314L31.109 21.317L31.110 21.320L31.110 21.324L31.111 21.327L31.111 21.330L31.111 21.333L31.111 21.337L31.111 21.340L31.111 21.343L31.111 21.346L31.111 21.350L31.110 21.353L31.110 21.356L31.109 21.359L31.108 21.363L31.107 21.366L31.106 21.369L31.105 21.372L31.104 21.375L31.103 21.378L31.101 21.381L31.100 21.384L31.098 21.387L31.097 21.389L31.095 21.392L31.093 21.395L31.091 21.397L31.089 21.400L31.087 21.403L31.085 21.405L31.083 21.407L31.080 21.410L31.078 21.412L31.075 21.414L31.073 21.416L31.070 21.418L31.068 21.420L31.065 21.422L31.062 21.423L31.059 21.425L31.038 21.436L13.726 30.092L13.704 30.102L13.701 30.104L13.698 30.105L13.695 30.106L13.692 30.107L13.689 30.108L13.686 30.109L13.683 30.109L13.680 30.110L13.676 30.110L13.673 30.111L13.670 30.111L13.667 30.111L13.663 30.111L13.660 30.111L13.657 30.111L13.654 30.111L13.650 30.111L13.647 30.110L13.644 30.110L13.641 30.109L13.637 30.108L13.634 30.107L13.631 30.106L13.628 30.105L13.625 30.104L13.622 30.103L13.619 30.101L13.616 30.100L13.613 30.098L13.611 30.097L13.608 30.095L13.605 30.093L13.603 30.091L13.600 30.089L13.597 30.087L13.595 30.085L13.593 30.083L13.590 30.080L13.588 30.078L13.586 30.075L13.584 30.073L13.582 30.070L13.580 30.068L13.578 30.065L13.577 30.062L13.575 30.059L13.564 30.038L4.908 12.726L4.898 12.704L4.896 12.701L4.895 12.698L4.894 12.695L4.893 12.692L4.892 12.689L4.891 12.686L4.891 12.683L4.890 12.680L4.890 12.676L4.889 12.673L4.889 12.670L4.889 12.667L4.889 12.663L4.889 12.660L4.889 12.657L4.889 12.654L4.889 12.650L4.890 12.647L4.890 12.644L4.891 12.641L4.892 12.637L4.893 12.634L4.894 12.631L4.895 12.628L4.896 12.625L4.897 12.622L4.899 12.619L4.900 12.616L4.902 12.613L4.903 12.611L4.905 12.608L4.907 12.605L4.909 12.603L4.911 12.600L4.913 12.597L4.915 12.595L4.917 12.593L4.920 12.590L4.922 12.588L4.925 12.586L4.927 12.584L4.930 12.582L4.932 12.580L4.935 12.578L4.938 12.577L4.941 12.575L4.962 12.564L22.274 3.908Z" fill="url(#lit0)"/>
  <path d="M3.826 10.337L3.750 10.377L3.676 10.418L3.603 10.462L3.532 10.509L3.462 10.558L3.394 10.609L3.328 10.662L3.263 10.717L3.201 10.775L3.140 10.834L3.081 10.896L3.024 10.959L2.969 11.024L2.917 11.091L2.867 11.160L2.819 11.230L2.773 11.302L2.729 11.375L2.689 11.450L2.650 11.526L2.614 11.603L2.581 11.681L2.550 11.760L2.522 11.841L2.496 11.922L2.473 12.004L2.453 12.086L2.435 12.170L2.421 12.253L2.409 12.338L2.399 12.422L2.393 12.507L2.389 12.592L2.388 12.677L2.390 12.762L2.395 12.847L2.402 12.932L2.412 13.016L2.425 13.100L2.441 13.184L2.459 13.267L2.481 13.349L2.504 13.431L2.531 13.512L2.560 13.592L2.592 13.671L2.626 13.749L2.663 13.826L11.337 31.174L11.377 31.250L11.418 31.324L11.462 31.397L11.509 31.468L11.558 31.538L11.609 31.606L11.662 31.672L11.717 31.737L11.775 31.799L11.834 31.860L11.896 31.919L11.959 31.976L12.024 32.031L12.091 32.083L12.160 32.133L12.230 32.181L12.302 32.227L12.375 32.271L12.450 32.311L12.526 32.350L12.603 32.386L12.681 32.419L12.760 32.450L12.841 32.478L12.922 32.504L13.004 32.527L13.086 32.547L13.170 32.565L13.253 32.579L13.338 32.591L13.422 32.601L13.507 32.607L13.592 32.611L13.677 32.612L13.762 32.610L13.847 32.605L13.932 32.598L14.016 32.588L14.100 32.575L14.184 32.559L14.267 32.541L14.349 32.519L14.431 32.496L14.512 32.469L14.592 32.440L14.671 32.408L14.749 32.374L14.826 32.337L32.174 23.663L32.250 23.623L32.324 23.582L32.397 23.538L32.468 23.491L32.538 23.442L32.606 23.391L32.672 23.338L32.737 23.283L32.799 23.225L32.860 23.166L32.919 23.104L32.976 23.041L33.031 22.976L33.083 22.909L33.133 22.840L33.181 22.770L33.227 22.698L33.271 22.625L33.311 22.550L33.350 22.474L33.386 22.397L33.419 22.319L33.450 22.240L33.478 22.159L33.504 22.078L33.527 21.996L33.547 21.914L33.565 21.830L33.579 21.747L33.591 21.662L33.601 21.578L33.607 21.493L33.611 21.408L33.612 21.323L33.610 21.238L33.605 21.153L33.598 21.068L33.588 20.984L33.575 20.900L33.559 20.816L33.541 20.733L33.519 20.651L33.496 20.569L33.469 20.488L33.440 20.408L33.408 20.329L33.374 20.251L33.337 20.174L24.663 2.826L24.623 2.750L24.582 2.676L24.538 2.603L24.491 2.532L24.442 2.462L24.391 2.394L24.338 2.328L24.283 2.263L24.225 2.201L24.166 2.140L24.104 2.081L24.041 2.024L23.976 1.969L23.909 1.917L23.840 1.867L23.770 1.819L23.698 1.773L23.625 1.729L23.550 1.689L23.474 1.650L23.397 1.614L23.319 1.581L23.240 1.550L23.159 1.522L23.078 1.496L22.996 1.473L22.914 1.453L22.830 1.435L22.747 1.421L22.662 1.409L22.578 1.399L22.493 1.393L22.408 1.389L22.323 1.388L22.238 1.390L22.153 1.395L22.068 1.402L21.984 1.412L21.900 1.425L21.816 1.441L21.733 1.459L21.651 1.481L21.569 1.504L21.488 1.531L21.408 1.560L21.329 1.592L21.251 1.626L21.174 1.663ZM21.669 2.535L21.717 2.514L21.765 2.494L21.815 2.476L21.864 2.460L21.915 2.445L21.965 2.432L22.017 2.421L22.068 2.411L22.120 2.403L22.172 2.397L22.224 2.392L22.276 2.390L22.328 2.388L22.381 2.389L22.433 2.391L22.485 2.395L22.537 2.401L22.589 2.408L22.641 2.417L22.692 2.428L22.743 2.441L22.793 2.455L22.843 2.470L22.893 2.488L22.941 2.507L22.989 2.527L23.037 2.550L23.084 2.573L23.130 2.598L23.175 2.625L23.219 2.653L23.262 2.683L23.304 2.714L23.345 2.746L23.385 2.780L23.424 2.815L23.462 2.851L23.499 2.888L23.534 2.927L23.568 2.967L23.601 3.007L23.633 3.049L23.663 3.092L23.691 3.136L23.718 3.181L23.744 3.226L23.772 3.280L32.439 20.614L32.465 20.669L32.486 20.717L32.506 20.765L32.524 20.815L32.540 20.864L32.555 20.915L32.568 20.965L32.579 21.017L32.589 21.068L32.597 21.120L32.603 21.172L32.608 21.224L32.610 21.276L32.612 21.328L32.611 21.381L32.609 21.433L32.605 21.485L32.599 21.537L32.592 21.589L32.583 21.641L32.572 21.692L32.559 21.743L32.545 21.793L32.530 21.843L32.512 21.893L32.493 21.941L32.473 21.989L32.450 22.037L32.427 22.084L32.402 22.130L32.375 22.175L32.347 22.219L32.317 22.262L32.286 22.304L32.254 22.345L32.220 22.385L32.185 22.424L32.149 22.462L32.112 22.499L32.073 22.534L32.033 22.568L31.993 22.601L31.951 22.633L31.908 22.663L31.864 22.691L31.819 22.718L31.774 22.744L31.720 22.772L14.386 31.439L14.331 31.465L14.283 31.486L14.235 31.506L14.185 31.524L14.136 31.540L14.085 31.555L14.035 31.568L13.983 31.579L13.932 31.589L13.880 31.597L13.828 31.603L13.776 31.608L13.724 31.610L13.672 31.612L13.619 31.611L13.567 31.609L13.515 31.605L13.463 31.599L13.411 31.592L13.359 31.583L13.308 31.572L13.257 31.559L13.207 31.545L13.157 31.530L13.107 31.512L13.059 31.493L13.011 31.473L12.963 31.450L12.916 31.427L12.870 31.402L12.825 31.375L12.781 31.347L12.738 31.317L12.696 31.286L12.655 31.254L12.615 31.220L12.576 31.185L12.538 31.149L12.501 31.112L12.466 31.073L12.432 31.033L12.399 30.993L12.367 30.951L12.337 30.908L12.309 30.864L12.282 30.819L12.256 30.774L12.228 30.720L3.561 13.386L3.535 13.331L3.514 13.283L3.494 13.235L3.476 13.185L3.460 13.136L3.445 13.085L3.432 13.035L3.421 12.983L3.411 12.932L3.403 12.880L3.397 12.828L3.392 12.776L3.390 12.724L3.388 12.672L3.389 12.619L3.391 12.567L3.395 12.515L3.401 12.463L3.408 12.411L3.417 12.359L3.428 12.308L3.441 12.257L3.455 12.207L3.470 12.157L3.488 12.107L3.507 12.059L3.527 12.011L3.550 11.963L3.573 11.916L3.598 11.870L3.625 11.825L3.653 11.781L3.683 11.738L3.714 11.696L3.746 11.655L3.780 11.615L3.815 11.576L3.851 11.538L3.888 11.501L3.927 11.466L3.967 11.432L4.007 11.399L4.049 11.367L4.092 11.337L4.136 11.309L4.181 11.282L4.226 11.256L4.280 11.228L21.614 2.561Z" fill="url(#lit1)"/>
  <circle cx="18" cy="17" r="5" fill="#eef1f5"/>
  <path d="M18 17H23A5 5 0 0 0 18 12Z" fill="#15181d"/>
  <path d="M18 17H13A5 5 0 0 0 18 22Z" fill="#15181d"/>
</svg>
